<svg width="48" height="48" viewBox="0 0 48 48" fill="none" xmlns="http://www.w3.org/2000/svg">
<rect width="48" height="48" fill="#323238"/>
<path d="M33.6305 13.625H15.4828C14.4916 13.625 13.625 14.3387 13.625 15.3186V33.5059C13.625 34.4914 14.4916 35.3693 15.4828 35.3693H33.6248C34.6217 35.3693 35.3693 34.4857 35.3693 33.5059V15.3186C35.375 14.3387 34.6217 13.625 33.6305 13.625ZM20.3652 31.75H17.25V22.0645H20.3652V31.75ZM18.9152 20.5918H18.8926C17.8957 20.5918 17.25 19.8498 17.25 18.9209C17.25 17.975 17.9127 17.25 18.9322 17.25C19.9518 17.25 20.5748 17.9693 20.5975 18.9209C20.5975 19.8498 19.9518 20.5918 18.9152 20.5918ZM31.75 31.75H28.6348V26.4541C28.6348 25.1854 28.1816 24.3188 27.0545 24.3188C26.1936 24.3188 25.6838 24.9021 25.4572 25.4686C25.3723 25.6725 25.3496 25.95 25.3496 26.2332V31.75H22.2344V22.0645H25.3496V23.4125C25.8027 22.7668 26.5107 21.8379 28.159 21.8379C30.2037 21.8379 31.75 23.1859 31.75 26.0916V31.75V31.75Z" fill="white"/>
</svg>
